<?xml version="1.0" standalone="no"?>
<!DOCTYPE svg PUBLIC "-//W3C//DTD SVG 20010904//EN"
 "http://www.w3.org/TR/2001/REC-SVG-20010904/DTD/svg10.dtd">
<svg version="1.0" xmlns="http://www.w3.org/2000/svg"
 width="1280.000000pt" height="1110.000000pt" viewBox="0 0 1280.000000 1110.000000"
 preserveAspectRatio="xMidYMid meet">
<metadata>
Created by potrace 1.15, written by Peter Selinger 2001-2017
</metadata>
<g transform="translate(0.000000,1110.000000) scale(0.100000,-0.100000)"
fill="#000000" stroke="none">
<path d="M4065 11094 c-142 -20 -193 -29 -280 -51 -180 -45 -396 -137 -550
-234 -137 -86 -218 -207 -297 -442 -72 -216 -78 -294 -53 -697 17 -263 14
-330 -16 -380 -33 -53 -71 -62 -304 -71 -134 -5 -227 -13 -257 -22 -60 -19
-146 -67 -223 -125 -107 -81 -349 -285 -401 -338 -137 -140 -287 -384 -350
-570 -41 -124 -33 -272 26 -479 33 -115 28 -160 -31 -294 -129 -290 -252 -733
-330 -1189 -28 -162 -30 -191 -26 -339 4 -126 2 -165 -8 -173 -16 -14 -162
-15 -196 -1 -25 9 -36 28 -59 102 -6 20 -19 44 -29 53 -23 21 -106 36 -198 36
-89 0 -108 -14 -143 -106 -19 -47 -24 -83 -26 -171 -2 -62 -8 -121 -13 -131
-6 -11 -23 -25 -39 -31 -36 -15 -79 -73 -131 -177 -129 -260 -161 -435 -91
-499 25 -23 26 -64 2 -136 -13 -43 -17 -88 -16 -219 0 -237 26 -373 90 -471
19 -30 65 -107 102 -173 65 -115 133 -198 183 -223 13 -7 66 -30 118 -52 111
-47 237 -122 292 -172 29 -27 39 -44 39 -67 0 -19 -38 -105 -100 -229 -54
-108 -96 -200 -91 -203 4 -3 38 -27 75 -55 111 -82 183 -212 194 -348 4 -61 2
-74 -27 -137 -18 -38 -48 -132 -67 -210 -20 -83 -51 -178 -77 -233 l-42 -92 1
-200 c0 -153 6 -232 22 -339 51 -320 132 -614 213 -765 59 -109 403 -364 558
-412 127 -39 440 -36 611 7 190 47 390 198 440 332 12 31 64 121 116 201 114
174 169 286 228 464 53 159 86 305 121 532 79 513 204 915 284 915 100 0 711
300 991 486 182 121 457 349 765 634 184 171 334 300 347 300 9 0 10 2 -43
-213 -73 -293 -107 -579 -95 -807 7 -150 18 -195 59 -238 27 -27 32 -41 35
-95 7 -109 -56 -494 -103 -624 -113 -319 -135 -412 -135 -580 0 -183 40 -217
315 -268 116 -22 238 -63 400 -135 335 -150 642 -222 950 -224 179 -1 263 15
323 60 49 38 58 70 33 121 -42 87 -171 194 -249 208 -56 9 -157 89 -332 265
-174 174 -267 291 -300 377 -26 68 -42 197 -43 338 0 167 65 342 178 481 157
192 295 645 394 1299 64 424 92 756 117 1400 9 231 17 421 18 422 1 1 65 19
141 38 225 59 394 133 571 250 178 119 230 187 324 421 77 191 163 362 337
669 193 341 243 447 243 518 0 88 134 264 332 432 132 113 255 198 483 332
l170 100 335 7 c184 4 367 10 405 13 63 6 67 7 35 14 -19 4 -83 13 -143 20
-59 7 -104 16 -100 20 5 4 58 17 119 29 89 17 139 21 248 18 l137 -3 52 56
c29 30 70 75 92 98 55 61 92 74 179 65 109 -11 176 -7 197 12 35 32 165 36
917 30 403 -4 746 -9 763 -13 l31 -6 -3 135 c-5 160 -16 188 -77 188 -20 0
-62 -12 -92 -26 -45 -21 -83 -28 -215 -40 -183 -16 -754 -34 -1081 -34 l-220
0 -17 183 c-28 301 -58 368 -144 324 -41 -22 -143 -133 -251 -273 l-92 -121
-182 -6 c-100 -4 -779 -7 -1510 -7 l-1328 0 0 84 c0 77 -2 87 -26 116 -62 73
-198 98 -949 174 -242 25 -471 48 -510 51 l-70 6 -51 -63 c-72 -88 -127 -176
-154 -245 -32 -81 -55 -110 -103 -134 -57 -29 -85 -56 -92 -91 -12 -51 -45
-63 -175 -63 -145 0 -171 13 -232 118 -22 40 -63 95 -89 124 -27 28 -49 54
-49 57 0 3 -7 31 -15 63 -20 74 -45 308 -38 348 8 45 28 61 96 80 168 47 184
86 112 276 -32 83 -292 602 -363 723 -70 119 -147 192 -262 248 -127 63 -232
87 -395 92 -71 3 -143 3 -160 0z m6898 -1773 c10 -29 23 -87 29 -128 11 -70
11 -76 -7 -89 -24 -18 -175 -18 -224 -1 -79 28 -67 72 48 189 107 109 126 113
154 29z m-3562 9 c67 -16 91 -45 87 -106 -2 -41 -7 -51 -28 -61 -54 -25 -275
-37 -685 -38 -473 0 -461 -2 -452 74 13 106 43 130 177 142 125 11 846 2 901
-11z m1038 -929 c12 -8 13 -16 3 -50 -24 -78 -131 -203 -431 -501 -533 -531
-665 -626 -1012 -734 -178 -55 -261 -71 -321 -62 -105 16 -396 234 -448 336
-30 60 -25 107 25 234 31 80 47 137 54 196 5 45 14 87 19 92 20 20 88 24 242
17 85 -4 174 -8 196 -8 l42 -1 7 -157 c4 -87 10 -194 14 -239 l6 -80 288 62
c158 34 290 63 292 66 2 2 10 119 16 260 l12 257 256 104 c366 151 568 214
681 216 25 0 51 -3 59 -8z m-1733 -187 c51 -34 69 -107 39 -163 -27 -54 -163
-96 -179 -56 -12 33 -29 182 -23 207 4 16 16 28 30 31 37 9 106 -2 133 -19z
m-1472 -1864 c156 -91 396 -271 396 -296 0 -25 -187 -145 -473 -303 -50 -27
-58 -29 -64 -15 -9 23 4 447 17 529 22 148 19 146 124 85z m-4386 -788 c5 -31
-57 -92 -92 -92 -45 0 -26 64 30 101 36 24 58 21 62 -9z"/>
</g>
</svg>
